<?xml version="1.0" encoding="utf-8"?>
<!-- Generator: Adobe Illustrator 16.0.0, SVG Export Plug-In . SVG Version: 6.00 Build 0)  -->
<!DOCTYPE svg PUBLIC "-//W3C//DTD SVG 1.1//EN" "http://www.w3.org/Graphics/SVG/1.1/DTD/svg11.dtd">
<svg version="1.1" id="Layer_1" xmlns="http://www.w3.org/2000/svg" xmlns:xlink="http://www.w3.org/1999/xlink" x="0px" y="0px"
	 width="792px" height="612px" viewBox="0 0 792 612" enable-background="new 0 0 792 612" xml:space="preserve">
<g>
	<path fill="#FFFFFF" d="M539.255,261.172c25.338,3.898,42.879,15.592,52.624,31.185c9.745,15.593,15.593,42.879,15.593,77.962
		c0,70.166-21.439,128.637-64.319,173.465C500.273,588.611,445.7,612,379.433,612c-25.337,0-50.675-3.898-76.013-13.644
		s-44.828-23.389-62.37-38.98c-19.49-17.542-35.083-38.981-44.828-58.472c-7.796-21.439-13.644-42.879-13.644-64.318
		c0-23.389,5.847-42.879,15.592-56.522s27.287-21.439,48.726-27.286c-3.898-9.745-7.796-17.542-9.745-25.338
		c-1.949-5.847-3.898-11.694-3.898-15.592c0-11.695,5.847-25.338,19.49-38.981c13.644-13.643,25.338-19.49,37.032-19.49
		c5.847,0,9.746,0,15.593,1.949c5.847,1.949,11.694,3.898,19.49,9.746c-17.542-58.472-35.083-107.198-44.828-140.332
		s-13.643-54.573-13.643-68.216c0-17.542,3.898-31.185,13.643-40.93C287.828,5.847,301.471,0,317.063,0
		c25.338,0,58.472,58.471,99.401,177.363c7.796,19.49,11.694,35.083,15.593,46.777c3.897-7.796,7.796-21.439,13.643-37.032
		C486.631,70.166,521.713,11.694,549,11.694c13.644,0,25.338,3.898,35.083,13.643c7.796,9.746,13.644,23.389,13.644,38.981
		c0,11.694-3.898,35.083-13.644,68.217C572.389,165.669,558.745,208.548,539.255,261.172z M239.102,432.688
		c3.898,3.898,9.745,11.694,15.592,21.439c17.542,25.338,35.083,38.981,50.675,38.981c5.847,0,9.745-1.949,13.643-5.848
		c3.898-3.897,5.847-7.796,5.847-9.745c0-3.897-1.949-11.694-7.796-21.439c-5.847-9.745-13.643-21.439-23.388-33.134
		c-11.694-13.643-21.439-25.337-27.287-31.185c-7.796-5.847-13.644-9.745-17.542-9.745c-9.745,0-19.491,5.847-27.287,15.593
		c-7.796,9.745-11.694,23.389-11.694,37.031c0,11.694,1.949,23.389,7.796,38.981c5.847,13.643,13.643,29.235,25.337,42.879
		c17.542,19.49,37.032,37.031,62.37,48.726c25.337,11.694,50.675,17.542,81.86,17.542c54.573,0,99.401-19.491,136.433-60.421
		c37.032-40.93,54.573-91.604,54.573-153.975c0-19.49-1.948-33.134-3.897-44.828s-7.797-19.49-13.644-23.388
		c-11.694-9.745-33.134-17.542-66.268-25.337c-33.134-7.796-68.217-11.694-103.299-11.694c-9.745,0-17.542,1.949-21.439,5.847
		c-3.898,3.898-5.847,9.745-5.847,17.542c0,19.49,9.745,33.134,31.185,40.93s56.522,13.644,103.3,13.644h17.541
		c3.898,0,7.796,1.949,9.745,3.897c1.949,3.898,3.898,7.797,3.898,13.644c-3.898,3.898-13.644,9.745-29.236,15.593
		c-15.592,5.847-25.337,11.694-33.134,17.541c-17.541,11.694-31.185,27.287-40.93,44.828s-15.592,33.134-15.592,48.727
		c0,9.745,1.948,19.49,5.847,33.134c3.898,13.643,5.848,21.439,5.848,23.388v3.898v3.898c-11.694,0-21.439-7.797-29.236-21.439
		c-7.796-13.644-9.745-31.185-9.745-54.573v-3.898c-1.949,1.949-3.898,3.898-5.847,3.898c-1.949,0-3.898,1.949-7.796,1.949
		c-1.949,0-5.847,0-7.796,0c-1.949,0-3.898-1.949-7.796-1.949c0,3.897,1.949,5.847,1.949,9.745s0,5.847,0,7.796
		c0,9.745-3.898,19.49-11.694,27.287c-7.796,7.796-17.541,11.694-29.235,11.694c-17.542,0-35.083-7.797-54.573-25.338
		c-17.542-17.541-27.287-33.134-27.287-50.676c0-3.897,0-5.847,1.949-7.796C235.204,436.586,237.153,434.637,239.102,432.688z
		 M365.79,442.434c3.898,0,9.745-1.949,13.643-5.848s5.847-9.745,5.847-13.644c0-5.847-3.898-17.541-11.694-37.031
		c-7.796-19.491-17.542-38.981-29.236-56.522c-7.796-13.644-17.541-25.338-25.337-31.185c-7.796-7.796-15.592-9.746-23.389-9.746
		c-5.847,0-11.694,3.898-19.49,11.694c-7.796,7.796-9.745,13.643-9.745,21.44c0,5.847,3.898,17.541,9.745,31.185
		c7.796,13.644,15.592,27.286,27.287,42.879c11.694,15.592,23.389,29.235,35.083,38.98
		C350.197,438.535,357.994,442.434,365.79,442.434z M406.72,239.732l-46.777-130.586c-11.694-33.134-19.491-56.522-27.287-66.268
		c-5.847-9.745-11.694-15.592-19.491-15.592c-5.847,0-9.745,1.949-13.643,5.847c-5.847,5.847-7.796,11.694-7.796,19.49
		c0,13.644,5.847,35.083,15.592,66.268c9.745,31.185,25.338,74.064,44.828,124.739c1.949-3.898,3.898-5.847,7.796-5.847
		c3.898-1.949,7.796-1.949,11.694-1.949c1.949,0,5.847,0,9.746,0C387.229,237.783,395.025,237.783,406.72,239.732z M453.497,366.42
		c-11.694,0-23.389-1.948-35.083-3.897s-21.439-3.898-31.185-7.796c3.898,9.745,7.796,17.541,11.694,27.286
		c3.897,9.745,5.847,17.541,7.796,27.286c5.847-7.796,13.644-15.592,21.439-23.388C437.904,378.114,445.7,372.268,453.497,366.42z
		 M510.02,253.376c19.49-50.675,33.133-93.554,44.827-126.688c9.746-33.134,15.593-52.625,15.593-60.42
		c0-7.796-1.949-13.644-5.847-19.49c-3.898-3.898-7.797-5.848-13.644-5.848c-7.797,0-15.593,5.848-23.389,19.491
		s-17.541,33.134-27.287,62.37l-42.879,120.84L510.02,253.376z"/>
</g>
</svg>
