<?xml version="1.0" encoding="utf-8"?>
<!-- Generator: Adobe Illustrator 16.0.0, SVG Export Plug-In . SVG Version: 6.00 Build 0)  -->
<!DOCTYPE svg PUBLIC "-//W3C//DTD SVG 1.1//EN" "http://www.w3.org/Graphics/SVG/1.1/DTD/svg11.dtd">
<svg version="1.1" id="Layer_1" xmlns="http://www.w3.org/2000/svg" xmlns:xlink="http://www.w3.org/1999/xlink" x="0px" y="0px"
	 width="243.529px" height="2137.286px" viewBox="185.309 133.143 243.529 2137.286"
	 enable-background="new 185.309 133.143 243.529 2137.286" xml:space="preserve">
<g>
	<g>
		<g>
			<g>
				<g>
					<path fill="none" stroke="#333333" stroke-linecap="round" stroke-linejoin="round" stroke-miterlimit="10" d="
						M367.037,2216.525"/>
					<path fill="none" stroke="#333333" stroke-linecap="round" stroke-linejoin="round" stroke-miterlimit="10" d="
						M323.882,2170.281"/>
					<path fill="none" stroke="#333333" stroke-linecap="round" stroke-linejoin="round" stroke-miterlimit="10" d="
						M361.26,2143.094"/>
					<path fill="none" stroke="#333333" stroke-linecap="round" stroke-linejoin="round" stroke-miterlimit="10" d="
						M365.896,2166.049"/>
					<path fill="none" stroke="#333333" stroke-linecap="round" stroke-linejoin="round" stroke-miterlimit="10" d="
						M349.637,2143.166"/>
					<path fill="none" stroke="#333333" stroke-linecap="round" stroke-linejoin="round" stroke-miterlimit="10" d="
						M356.811,2142.32"/>
					<path fill="none" stroke="#333333" stroke-linecap="round" stroke-linejoin="round" stroke-miterlimit="10" d="M346.74,2147.82
						l-0.61-0.24c0,0,0-0.17,0-0.46h0.9v0.7H346.74z"/>
					<path fill="none" stroke="#333333" stroke-linecap="round" stroke-linejoin="round" stroke-miterlimit="10" d="M378.59,2186.8
						l-0.37,1.25c-0.43,1.2-1.14,2.23-1.95,3.2c-0.328,0.38-0.81,0.83-1.14,1.21c-3.06,3.18-6.42,6.04-9.67,8.96l0.54,0.21
						c0,4.229,0,8.46,0.01,12.69c0,0.64,0.3,1.129,0.852,1.47v1.21c0,0-0.67,0.25-0.7,0.99l-0.03,4.97
						c0.03,0.1,0.07,0.189,0.062,0.26c-0.171,0.771-1.302,1.24-2.102,1.25v2.21h-7.39c-0.21,0-0.38,0.021-0.521,0.189
						c0,0,0.11,1.431,0.312,2.16c0.068,0.221,0.3,0.41,0.47,0.59c0.34,0.371,0.35,0.67-0.01,1.03c-0.2,0.199-0.41,0.399-0.62,0.591
						c0,0-0.271,0.398-0.13,0.568c0.24,0.29,0.38,0.69,0.529,1.051c0.091,0.221,0.159,0.439,0.229,0.659c0,0,5,15.48,5.37,16.632
						c0.05,0.22,0.22,0.879,0.07,1.33c-0.102,0.479,0.22,0.988,0.22,0.988c0.1,0.312,0.2,0.61,0.29,0.92l0.31,1.21
						c-0.12,0.091-0.22,0.181-0.29,0.24h-15.3c0.08-0.06,0.18-0.149,0.29-0.24l-0.3-1.21c-0.102-0.31-0.19-0.608-0.29-0.92
						c0,0-0.32-0.51-0.22-0.988c0.148-0.45-0.021-1.11-0.08-1.33c-0.36-1.15-5.36-16.632-5.36-16.632
						c-0.08-0.22-0.14-0.438-0.229-0.659c-0.16-0.359-0.29-0.761-0.53-1.051c-0.142-0.17,0.13-0.568,0.13-0.568
						c0.21-0.19,0.42-0.392,0.62-0.591c0.358-0.36,0.35-0.659,0.01-1.03c-0.17-0.18-0.399-0.369-0.47-0.59
						c-0.2-0.729-0.312-2.16-0.312-2.16c0.142-0.17,0.312-0.189,0.512-0.189h7.398v-2.21c0.79-0.01,1.932-0.479,2.09-1.25
						c0.021-0.069-0.028-0.16-0.05-0.26l0.021-4.97c0.028-0.74,0.698-0.99,0.698-0.99v-1.21c-0.54-0.341-0.84-0.83-0.84-1.47
						c-0.01-4.23-0.01-8.461-0.01-12.69l-0.55-0.21c3.26-2.92,6.62-5.78,9.67-8.96c0.34-0.38,0.82-0.83,1.15-1.21
						c0.81-0.97,1.51-2,1.938-3.2l0.37-1.25c0-0.18-0.73-3.09-0.73-3.09c0-0.57-0.068-1.84-0.068-1.84c-0.11-1.13,0-2.341-6.67-3.63
						c0,0-0.84-3.682-0.99-4.24c-0.14-0.4-0.73-1.84-0.73-1.84c-0.368-0.7-0.71-1.42-1.108-2.102c-0.46-0.75-2.392-4.01-2.392-4.01
						l0.33-2.648c0.07-0.78,0.25-1.562,0.08-2.36l-0.59-2.79c-0.11-0.74-0.76-1.12-1.38-1.48c-0.021,0-0.37-2.64-0.39-2.64h1.398
						v-0.72l-1.398-0.13l0.148-0.99c0.44-0.12,0.9-0.21,1.32-0.38c0.56-0.21,0.6-0.55,0.148-0.939l-2.278-0.08
						c0,0-0.271-1.319-0.301-1.801h1.271v-6.85h12.46c0,0.24,0,5.34,0,5.34l0.61,0.24h0.96v1.199c0,0.399,0.29,1.869,0.29,1.869
						l2.29,0.08c0.438,0.392,0.398,0.73-0.15,0.94c-0.43,0.17-0.89,0.26-1.33,0.38l-0.14,0.99l1.39,0.13v0.72h-1.39
						c0.01,0,0.37,2.64,0.38,2.64c0.62,0.36,1.28,0.74,1.38,1.48l0.59,2.79c0.181,0.8,0,1.58-0.069,2.359l-0.329,2.649
						c0,0,1.93,3.26,2.38,4.01c0.409,0.681,0.738,1.4,1.108,2.102c0,0,0.591,1.438,0.74,1.84c0.14,0.56,0.99,4.24,0.99,4.24
						c6.66,1.29,6.55,2.5,6.66,3.63c0,0,0.08,1.27,0.08,1.84C377.86,2183.71,378.59,2186.62,378.59,2186.8z"/>
				</g>
			</g>
		</g>
	</g>
</g>
<g>
	<g>
		<g>
			<g>
				<g>
					<path fill="none" stroke="#333333" stroke-linecap="round" stroke-linejoin="round" stroke-miterlimit="10" d="
						M301.725,2216.525"/>
					<path fill="none" stroke="#333333" stroke-linecap="round" stroke-linejoin="round" stroke-miterlimit="10" d="
						M258.57,2170.281"/>
					<path fill="none" stroke="#333333" stroke-linecap="round" stroke-linejoin="round" stroke-miterlimit="10" d="
						M295.948,2143.094"/>
					<path fill="none" stroke="#333333" stroke-linecap="round" stroke-linejoin="round" stroke-miterlimit="10" d="
						M300.583,2166.049"/>
					<path fill="none" stroke="#333333" stroke-linecap="round" stroke-linejoin="round" stroke-miterlimit="10" d="
						M284.322,2143.166"/>
					<path fill="none" stroke="#333333" stroke-linecap="round" stroke-linejoin="round" stroke-miterlimit="10" d="
						M291.498,2142.32"/>
					<path fill="none" stroke="#333333" stroke-linecap="round" stroke-linejoin="round" stroke-miterlimit="10" d="M281.43,2147.82
						l-0.61-0.24c0,0,0-0.17,0-0.46h0.89v0.7H281.43z"/>
					<path fill="none" stroke="#333333" stroke-linecap="round" stroke-linejoin="round" stroke-miterlimit="10" d="M305.13,2185.8
						l-0.04,9.46c0,0-0.64,0.13-0.81,0.221c-0.49,0.131-2.22,1.811-2.22,1.811l0.38,0.479c0,0,0.98,0.16,1.04,0.66
						c0,0,0,0.012,0,0.021c-1.11,0.99-2.23,1.979-3.33,2.97l0.54,0.21c0,4.23,0,8.46,0.01,12.689c0,0.641,0.3,1.131,0.84,1.471v1.21
						c0,0-0.67,0.25-0.7,0.989l-0.02,4.971c0.02,0.1,0.07,0.189,0.05,0.26c-0.16,0.771-1.3,1.24-2.09,1.25v2.21h-7.4
						c-0.2,0-0.37,0.021-0.51,0.19c0,0,0.11,1.43,0.31,2.159c0.07,0.22,0.3,0.41,0.47,0.591c0.34,0.369,0.35,0.67-0.01,1.029
						c-0.2,0.199-0.41,0.399-0.62,0.59c0,0-0.27,0.399-0.13,0.569c0.24,0.29,0.37,0.69,0.53,1.052c0.09,0.22,0.15,0.438,0.23,0.658
						c0,0,5,15.48,5.36,16.631c0.06,0.221,0.23,0.881,0.08,1.33c-0.1,0.479,0.22,0.989,0.22,0.989c0.1,0.312,0.19,0.61,0.29,0.92
						l0.3,1.21c-0.11,0.092-0.21,0.182-0.29,0.24h-15.29c0.07-0.061,0.18-0.148,0.29-0.24l-0.3-1.21c-0.1-0.31-0.2-0.608-0.29-0.92
						c0,0-0.33-0.51-0.22-0.989c0.14-0.449-0.03-1.109-0.08-1.33c-0.37-1.149-5.37-16.631-5.37-16.631
						c-0.07-0.22-0.13-0.438-0.22-0.658c-0.16-0.36-0.3-0.762-0.54-1.052c-0.14-0.17,0.14-0.569,0.14-0.569
						c0.2-0.189,0.41-0.391,0.62-0.59c0.35-0.359,0.35-0.66,0-1.029c-0.17-0.181-0.4-0.371-0.47-0.591
						c-0.2-0.729-0.31-2.159-0.31-2.159c0.14-0.17,0.31-0.19,0.52-0.19h7.39v-2.21c0.8-0.01,1.94-0.479,2.1-1.25
						c0.01-0.069-0.03-0.16-0.06-0.26l0.03-4.971c0.03-0.739,0.7-0.989,0.7-0.989v-1.21c-0.55-0.34-0.85-0.83-0.85-1.471v-12.689
						l-0.55-0.21c3.26-2.92,6.61-5.78,9.67-8.96c0.34-0.38,0.82-0.83,1.15-1.21c0.81-0.97,1.51-2,1.94-3.2l0.37-1.25
						c0-0.18-0.73-3.09-0.73-3.09c0-0.57-0.07-1.84-0.07-1.84c-0.11-1.13,0-2.34-6.67-3.63c0,0-0.84-3.681-0.99-4.24
						c-0.15-0.399-0.74-1.84-0.74-1.84c-0.36-0.7-0.7-1.42-1.11-2.102c-0.45-0.75-2.38-4.01-2.38-4.01l0.33-2.649
						c0.07-0.779,0.25-1.561,0.07-2.359l-0.58-2.79c-0.11-0.74-0.76-1.12-1.39-1.48c-0.01,0-0.37-2.64-0.38-2.64h1.4v-0.72
						l-1.4-0.13l0.14-0.99c0.45-0.12,0.9-0.21,1.33-0.38c0.56-0.21,0.59-0.55,0.15-0.94l-2.28-0.08c0,0-0.27-1.318-0.3-1.8h1.26
						v-6.85h12.47c0,0.239,0,5.34,0,5.34l0.61,0.24h0.96v1.198c0,0.4,0.29,1.871,0.29,1.871l2.28,0.08
						c0.45,0.391,0.41,0.729-0.15,0.939c-0.42,0.17-0.88,0.26-1.32,0.38l-0.15,0.99l1.4,0.13v0.72h-1.4c0.02,0,0.37,2.64,0.39,2.64
						c0.62,0.36,1.27,0.74,1.38,1.48l0.59,2.79c0.18,0.8-0.01,1.58-0.07,2.36l-0.34,2.648c0,0,1.93,3.26,2.39,4.01
						c0.41,0.682,0.74,1.4,1.11,2.102c0,0,0.59,1.438,0.73,1.84c0.09,0.35,0.45,1.89,0.71,3.02v0.012l-0.17,0.608
						c0,0,0.17,0.03,0.33,0.062c0.07,0.33,0.12,0.54,0.12,0.54c0.04,0.01,0.08,0.02,0.12,0.02c0.03,0.972,0.09,2.91,0.09,2.91
						c-0.62,0.28-1.24,0.57-1.88,0.84c-0.17,0.07-0.22,0.17-0.22,0.341c0.01,0.58,0.01,1.17,0,1.761c0,0.239,0.06,0.489,0.27,0.58
						C304.69,2184.91,304.88,2185.38,305.13,2185.8z"/>
					<path fill="none" stroke="#333333" stroke-linecap="round" stroke-linejoin="round" stroke-miterlimit="10" d="M305.68,2177.7
						c-0.16-0.03-0.33-0.062-0.33-0.062l0.17-0.608C305.58,2177.28,305.63,2177.51,305.68,2177.7z"/>
				</g>
			</g>
		</g>
	</g>
</g>
<g>
	<g>
		<g>
			<g>
				<g>
					<path fill="none" stroke="#333333" stroke-linecap="round" stroke-linejoin="round" stroke-miterlimit="10" d="
						M351.744,2216.525"/>
					<path fill="none" stroke="#333333" stroke-linecap="round" stroke-linejoin="round" stroke-miterlimit="10" d="
						M308.588,2170.281"/>
					<path fill="none" stroke="#333333" stroke-linecap="round" stroke-linejoin="round" stroke-miterlimit="10" d="
						M345.967,2143.094"/>
					<path fill="none" stroke="#333333" stroke-linecap="round" stroke-linejoin="round" stroke-miterlimit="10" d="
						M350.602,2166.049"/>
					<path fill="none" stroke="#333333" stroke-linecap="round" stroke-linejoin="round" stroke-miterlimit="10" d="
						M334.343,2143.166"/>
					<path fill="none" stroke="#333333" stroke-linecap="round" stroke-linejoin="round" stroke-miterlimit="10" d="
						M341.518,2142.32"/>
					<path fill="none" stroke="#333333" stroke-linecap="round" stroke-linejoin="round" stroke-miterlimit="10" d="M363.29,2186.8
						l-0.37,1.25c-0.43,1.2-1.13,2.23-1.938,3.2c-0.33,0.38-0.812,0.83-1.15,1.21c-3.05,3.18-6.41,6.04-9.67,8.96l0.55,0.21
						c0,4.229,0,8.46,0.01,12.69c0,0.64,0.301,1.129,0.84,1.47v1.21c0,0-0.67,0.25-0.698,0.99l-0.021,4.97
						c0.021,0.1,0.07,0.189,0.05,0.26c-0.158,0.771-1.3,1.24-2.09,1.25v2.21h-7.4c-0.2,0-0.37,0.021-0.512,0.189
						c0,0,0.11,1.431,0.312,2.16c0.068,0.221,0.3,0.41,0.47,0.59c0.34,0.371,0.35,0.67-0.01,1.03c-0.2,0.199-0.41,0.399-0.62,0.591
						c0,0-0.271,0.398-0.13,0.568c0.24,0.29,0.37,0.69,0.53,1.051c0.09,0.221,0.148,0.439,0.229,0.659c0,0,5,15.48,5.36,16.632
						c0.06,0.22,0.229,0.879,0.08,1.33c-0.102,0.479,0.22,0.988,0.22,0.988c0.1,0.312,0.188,0.61,0.29,0.92l0.3,1.21
						c-0.11,0.091-0.21,0.181-0.29,0.24H313.2c-0.142-0.17-0.42-0.79-0.42-0.79s7.2-25.08,7.25-25.27
						c0.16-0.53,0.35-1.051,0.46-1.591c0.06-0.28,0.02-0.58-0.07-0.891c-0.16-0.569-0.56-0.96-0.91-1.38
						c-0.71-0.86-1.438-1.689-2.17-2.551c-0.859-1.021-1.72-2.05-2.57-3.09c-0.39-0.479-0.92-0.949-1.068-1.58
						c-0.08-0.3-0.07-0.521-0.07-0.88c0,0,0.07-7.53,0.07-8.061c0,0,0-2.529,0-3.561v-2.069l-6.182-1.32c0,0-3.35-0.729-3.378-0.739
						c-0.36-0.17-0.5-0.479-0.51-0.851c-0.02-0.399-0.13-1.591-0.15-1.771c0-0.01,0-0.021,0-0.021c-0.06-0.5-1.04-0.66-1.04-0.66
						l-0.38-0.479c0,0,1.73-1.68,2.22-1.81c0.17-0.092,0.81-0.221,0.81-0.221l0.04-9.461c-0.25-0.42-0.44-0.89-0.95-1.108
						c-0.21-0.091-0.27-0.341-0.27-0.58c0.01-0.591,0.01-1.181,0-1.761c0-0.17,0.05-0.271,0.22-0.34
						c0.64-0.271,1.26-0.561,1.88-0.841c0,0-0.06-1.938-0.09-2.909c0-0.261-0.01-0.45-0.01-0.511c-0.06-0.01-0.14-0.03-0.23-0.05
						c-0.05-0.189-0.1-0.42-0.16-0.67v-0.011l0.46-1.63l0.44-0.29v-0.479c0-1.061,1.062-1.47,1.46-1.67l1.67-4.26
						c-0.01-1.511-0.04-4.2-0.04-5.71c0-1.021,1.4-3.99,1.4-3.99l1.84-2.36v-1.619c0-0.529,0.28-0.58,0.69-0.591l3.21-0.03v-2.488
						h4.188v-2.812h2.852v-1.29l0.908,0.021v1.27h4.472l0.01-1.27c0,0,0.649,0,0.96,0v1.27h0.729v-1.97h0.961v1.97h1.931v-6.85
						h12.47v4.88c0,0.29,0,0.46,0,0.46l0.61,0.24h0.29v1.27h0.66c0.028,0.48,0.3,1.8,0.3,1.8l2.278,0.08
						c0.45,0.392,0.41,0.73-0.148,0.94c-0.42,0.17-0.88,0.26-1.32,0.38l-0.148,0.989l1.398,0.131v0.72h-1.398
						c0.02,0,0.368,2.64,0.39,2.64c0.62,0.36,1.27,0.74,1.38,1.48l0.59,2.789c0.17,0.801-0.01,1.58-0.08,2.36l-0.33,2.649
						c0,0,1.932,3.26,2.392,4.01c0.398,0.681,0.74,1.4,1.108,2.102c0,0,0.592,1.438,0.73,1.84c0.15,0.56,0.99,4.24,0.99,4.24
						c6.67,1.289,6.56,2.5,6.67,3.629c0,0,0.068,1.271,0.068,1.841C362.56,2183.71,363.29,2186.62,363.29,2186.8z"/>
					<path fill="none" stroke="#333333" stroke-linecap="round" stroke-linejoin="round" stroke-miterlimit="10" d="M305.68,2177.7
						c-0.16-0.03-0.33-0.062-0.33-0.062l0.17-0.608C305.58,2177.28,305.63,2177.51,305.68,2177.7z"/>
					
						<rect x="347.03" y="2147.82" fill="none" stroke="#333333" stroke-linecap="round" stroke-linejoin="round" stroke-miterlimit="10" width="0.66" height="1.27"/>
				</g>
			</g>
		</g>
	</g>
</g>
<g>
	<g>
		<g>
			<g>
				<g>
					<path fill="none" stroke="#333333" stroke-linecap="round" stroke-linejoin="round" stroke-miterlimit="10" d="
						M286.43,2216.525"/>
					<path fill="none" stroke="#333333" stroke-linecap="round" stroke-linejoin="round" stroke-miterlimit="10" d="
						M243.275,2170.281"/>
					<path fill="none" stroke="#333333" stroke-linecap="round" stroke-linejoin="round" stroke-miterlimit="10" d="
						M280.654,2143.094"/>
					<path fill="none" stroke="#333333" stroke-linecap="round" stroke-linejoin="round" stroke-miterlimit="10" d="
						M285.289,2166.049"/>
					<path fill="none" stroke="#333333" stroke-linecap="round" stroke-linejoin="round" stroke-miterlimit="10" d="
						M269.027,2143.166"/>
					<path fill="none" stroke="#333333" stroke-linecap="round" stroke-linejoin="round" stroke-miterlimit="10" d="
						M276.203,2142.32"/>
					<path fill="none" stroke="#333333" stroke-linecap="round" stroke-linejoin="round" stroke-miterlimit="10" d="M297.98,2186.8
						l-0.37,1.25c-0.43,1.2-1.13,2.23-1.94,3.2c-0.33,0.38-0.81,0.83-1.15,1.21c-3.06,3.18-6.41,6.04-9.67,8.96l0.55,0.21v12.69
						c0,0.64,0.3,1.129,0.85,1.47v1.21c0,0-0.67,0.25-0.7,0.99l-0.03,4.97c0.03,0.1,0.07,0.189,0.06,0.26
						c-0.16,0.771-1.3,1.24-2.1,1.25v2.21h-7.39c-0.21,0-0.38,0.021-0.52,0.189c0,0,0.11,1.431,0.31,2.16
						c0.07,0.221,0.3,0.41,0.47,0.59c0.35,0.371,0.35,0.67,0,1.03c-0.21,0.199-0.42,0.399-0.62,0.591c0,0-0.28,0.398-0.14,0.568
						c0.24,0.29,0.38,0.69,0.54,1.051c0.09,0.221,0.15,0.439,0.22,0.659c0,0,5,15.48,5.37,16.632c0.05,0.22,0.22,0.879,0.08,1.33
						c-0.11,0.479,0.22,0.988,0.22,0.988c0.09,0.312,0.19,0.61,0.29,0.92l0.3,1.21c-0.11,0.091-0.22,0.181-0.29,0.24h-34.43
						c-0.15-0.17-0.42-0.79-0.42-0.79s7.2-25.08,7.25-25.27c0.16-0.53,0.35-1.051,0.46-1.591c0.06-0.28,0.01-0.58-0.07-0.891
						c-0.17-0.569-0.56-0.96-0.91-1.38c-0.71-0.86-1.45-1.689-2.17-2.551c-0.86-1.021-1.72-2.05-2.57-3.09
						c-0.4-0.479-0.93-0.949-1.08-1.58c-0.07-0.3-0.07-0.521-0.07-0.88c0,0,0.08-7.53,0.07-8.061c0,0,0.01-2.529,0.01-3.561v-2.069
						l-6.18-1.32c0,0-3.36-0.729-3.38-0.739c-0.36-0.17-0.5-0.479-0.52-0.851c-0.01-0.431-0.15-1.791-0.15-1.791
						c-0.06-0.5-1.03-0.659-1.03-0.659l-0.39-0.479c0,0,1.73-1.68,2.23-1.81c0.17-0.091,0.81-0.222,0.81-0.222l0.03-9.459
						c-0.25-0.42-0.43-0.891-0.94-1.109c-0.22-0.091-0.27-0.341-0.27-0.58c0.01-0.591,0.01-1.181,0-1.761
						c0-0.17,0.05-0.271,0.22-0.341c0.64-0.27,1.26-0.56,1.88-0.84c0,0-0.1-3.109-0.11-3.42c-0.16-0.029-0.55-0.109-0.55-0.109
						l0.62-2.25l0.45-0.291v-0.479c0-1.061,1.05-1.47,1.45-1.67l1.67-4.26c0-1.512-0.03-4.2-0.03-5.71c0-1.021,1.39-3.99,1.39-3.99
						l1.84-2.36v-1.62c0-0.528,0.28-0.58,0.7-0.59l3.2-0.03v-2.488h4.2v-2.812h2.85v-1.29l0.9,0.021v1.27h4.48l0.01-1.27
						c0,0,0.65,0,0.96,0v1.27h0.73v-1.97h0.96v1.97h1.93v-6.85h12.47v4.879c0,0.291,0,0.461,0,0.461l0.61,0.239h0.28v1.271h0.67
						c0.03,0.479,0.3,1.8,0.3,1.8l2.28,0.08c0.44,0.392,0.41,0.729-0.15,0.94c-0.43,0.17-0.88,0.26-1.33,0.379l-0.14,0.99l1.4,0.13
						v0.72h-1.4c0.01,0,0.37,2.641,0.38,2.641c0.63,0.359,1.28,0.74,1.39,1.479l0.58,2.79c0.18,0.801,0,1.58-0.07,2.36l-0.33,2.649
						c0,0,1.93,3.26,2.38,4.01c0.41,0.681,0.75,1.399,1.11,2.101c0,0,0.59,1.439,0.74,1.841c0.15,0.56,0.99,4.239,0.99,4.239
						c6.67,1.29,6.56,2.5,6.67,3.63c0,0,0.07,1.271,0.07,1.84C297.25,2183.71,297.98,2186.62,297.98,2186.8z"/>
					
						<rect x="281.71" y="2147.82" fill="none" stroke="#333333" stroke-linecap="round" stroke-linejoin="round" stroke-miterlimit="10" width="0.67" height="1.27"/>
				</g>
			</g>
		</g>
	</g>
</g>
<path fill="none" stroke="#333333" stroke-linecap="round" stroke-linejoin="round" stroke-miterlimit="10" d="M386.208,423.013
	H225.943c0.757-47.98,49.584-57.778,80.132-57.778C336.979,365.235,385.428,376.835,386.208,423.013z"/>
<path fill="none" stroke="#333333" stroke-linecap="round" stroke-linejoin="round" stroke-miterlimit="10" d="M371.008,381.538
	l-9.34-34.093H251.086l-9.94,33.412c16.689-16.366,46.006-20.211,64.93-20.038C326.41,361.005,354.502,365.268,371.008,381.538z"/>
<path fill="none" stroke="#333333" stroke-linecap="round" stroke-linejoin="round" stroke-miterlimit="10" d="M371.062,2103.996
	l-9.338,34.086h-110.56l-9.938-33.406c18.967,18.402,49.149,20.723,64.545,20.787
	C326.104,2125.553,354.041,2120.865,371.062,2103.996z"/>
<path fill="none" stroke="#333333" stroke-linecap="round" stroke-linejoin="round" stroke-miterlimit="10" d="M386.282,2060.883
	c0,16.229-5.812,28.404-14.699,37.41l-0.245,0.254c-16.949,16.941-44.861,22.492-65.194,22.492
	c-15.396,0-35.432-2.812-51.615-11.748c-4.742-2.607-9.157-5.756-13.023-9.506l-1.373-1.379l-0.104-0.113
	c-8.504-8.922-14.024-21.086-14.024-37.467L386.282,2060.883z"/>
<path fill="none" stroke="#333333" stroke-linecap="round" stroke-linejoin="round" stroke-miterlimit="10" d="M394.664,297.527
	c0,36.326,0,105.011,0,105.011l-8.434,20.475h-80.155V150.909C335.849,150.909,394.664,220.916,394.664,297.527z"/>
<path fill="none" stroke="#333333" stroke-linecap="round" stroke-linejoin="round" stroke-miterlimit="10" d="M217.487,297.527
	c0,36.326,0,105.011,0,105.011l8.434,20.475h80.154V150.909C276.302,150.909,217.487,220.916,217.487,297.527z"/>
<rect x="249.568" y="228.329" fill="none" stroke="#333333" stroke-miterlimit="10" width="113.014" height="114.028"/>
<path fill="none" stroke="#333333" stroke-linecap="round" stroke-linejoin="round" stroke-miterlimit="10" d="M372.859,771.573
	l-9.604,35.062h-113.73l-10.222-34.362c17.163,16.83,47.312,21.553,66.775,21.37C326.994,793.454,355.695,788.574,372.859,771.573z"
	/>
<path fill="none" stroke="#333333" stroke-linecap="round" stroke-linejoin="round" stroke-miterlimit="10" d="M386.23,424.171
	v152.181c0,16.231-5.813,28.411-14.694,37.406l-0.245,0.269c-16.967,16.942-44.888,22.485-65.215,22.485
	c-15.408,0-35.446-2.805-51.633-11.755c-4.742-2.604-9.151-5.745-13.025-9.507l-1.358-1.381l-0.112-0.111
	c-8.505-8.929-14.026-21.086-14.026-37.472V424.171c0-0.401,0-0.779,0.022-1.158h160.265
	C386.23,423.392,386.23,423.77,386.23,424.171z"/>
<path fill="none" stroke="#333333" stroke-linecap="round" stroke-linejoin="round" stroke-miterlimit="10" d="M386.23,423.013
	v1.158c0-0.401,0-0.779-0.022-1.158H386.23z"/>
<path fill="none" stroke="#333333" stroke-linecap="round" stroke-linejoin="round" stroke-miterlimit="10" d="M386.23,576.354
	v152.448c0,16.231-5.813,28.411-14.694,37.43l-0.245,0.243c-16.967,16.943-44.888,22.488-65.215,22.488
	c-15.408,0-35.446-2.805-51.633-11.734c-4.742-2.627-9.151-5.766-13.025-9.507l-1.358-1.38l-0.112-0.111
	c-8.505-8.93-14.026-21.106-14.026-37.493v-152.45c0,16.386,5.521,28.543,14.026,37.472l0.112,0.111l1.358,1.381
	c3.874,3.762,8.283,6.902,13.025,9.507c16.187,8.95,36.225,11.755,51.633,11.755c20.328,0,48.249-5.543,65.215-22.485l0.245-0.269
	C380.417,604.763,386.23,592.584,386.23,576.354z"/>
<path fill="none" stroke="#333333" stroke-linecap="round" stroke-linejoin="round" stroke-miterlimit="10" d="M386.208,990.127
	v615.498c0,16.23-5.812,28.387-14.696,37.404l-0.243,0.246c-16.943,16.94-44.864,22.485-65.192,22.485
	c-15.408,0-35.424-2.805-51.611-11.731c-4.742-2.604-9.15-5.769-13.024-9.509l-1.38-1.381l-0.09-0.11
	c-8.504-8.929-14.027-21.086-14.027-37.474v-615.43c0-48.961,49.339-58.912,80.132-58.912
	C337.246,931.215,386.208,943.014,386.208,990.127z"/>
<line fill="none" stroke="#333333" stroke-linecap="round" stroke-linejoin="round" stroke-miterlimit="10" x1="306.076" y1="423.013" x2="306.076" y2="365.235"/>
<path fill="none" stroke="#333333" stroke-linecap="round" stroke-linejoin="round" stroke-miterlimit="10" d="M386.272,1794.275
	v266.604l-160.263-0.045v-266.602l-0.067-188.677c0,16.388,5.522,28.545,14.027,37.474l0.09,0.11l1.38,1.381
	c3.874,3.74,8.282,6.904,13.024,9.509c16.187,8.928,36.204,11.731,51.611,11.731c20.328,0,48.249-5.545,65.192-22.485l0.243-0.246
	c8.886-9.019,14.696-21.174,14.696-37.404L386.272,1794.275z"/>
<polygon fill="none" stroke="#333333" stroke-linecap="round" stroke-linejoin="round" stroke-miterlimit="10" points="
	225.921,728.736 225.943,990.127 386.208,990.127 386.23,728.802 "/>
<g>
	<g>
		<g>
			<g>
				<g>
					<path fill="none" stroke="#333333" stroke-linecap="round" stroke-linejoin="round" stroke-miterlimit="10" d="M325.15,885.301
						"/>
					<path fill="none" stroke="#333333" stroke-linecap="round" stroke-linejoin="round" stroke-miterlimit="10" d="
						M281.995,839.056"/>
					<path fill="none" stroke="#333333" stroke-linecap="round" stroke-linejoin="round" stroke-miterlimit="10" d="
						M319.374,811.869"/>
					<path fill="none" stroke="#333333" stroke-linecap="round" stroke-linejoin="round" stroke-miterlimit="10" d="
						M324.009,834.823"/>
					<path fill="none" stroke="#333333" stroke-linecap="round" stroke-linejoin="round" stroke-miterlimit="10" d="
						M307.748,811.941"/>
					<path fill="none" stroke="#333333" stroke-linecap="round" stroke-linejoin="round" stroke-miterlimit="10" d="
						M314.923,811.095"/>
					<path fill="none" stroke="#333333" stroke-linecap="round" stroke-linejoin="round" stroke-miterlimit="10" d="
						M336.701,855.576l-0.37,1.249c-0.43,1.196-1.135,2.229-1.945,3.2c-0.33,0.383-0.808,0.832-1.144,1.214
						c-3.062,3.181-6.417,6.042-9.672,8.956l0.547,0.207c0,4.229,0,8.462,0.007,12.688c0,0.646,0.297,1.136,0.844,1.477v1.214
						c0,0-0.668,0.244-0.699,0.989l-0.022,4.974c0.022,0.096,0.065,0.183,0.055,0.256c-0.164,0.764-1.301,1.243-2.096,1.25v2.203
						h-0.4c-2.33,0-4.661,0.006-6.994,0c-0.205,0-0.375,0.022-0.516,0.188c0,0,0.109,1.439,0.311,2.168
						c0.066,0.22,0.298,0.407,0.468,0.591c0.346,0.368,0.352,0.673-0.006,1.03c-0.201,0.201-0.413,0.396-0.619,0.591
						c0,0-0.273,0.393-0.133,0.569c0.24,0.291,0.376,0.688,0.532,1.051c0.092,0.212,0.151,0.438,0.226,0.662
						c0,0,5.003,15.474,5.367,16.629c0.055,0.22,0.225,0.88,0.078,1.324c-0.104,0.484,0.22,0.99,0.22,0.99
						c0.097,0.309,0.191,0.611,0.29,0.922l0.304,1.207c-0.114,0.092-0.218,0.182-0.291,0.242H286.61
						c-0.147-0.17-0.419-0.789-0.419-0.789s7.194-25.08,7.249-25.273c0.158-0.528,0.346-1.051,0.461-1.585
						c0.061-0.286,0.01-0.583-0.073-0.888c-0.164-0.577-0.559-0.964-0.911-1.389c-0.71-0.857-1.444-1.688-2.167-2.545
						c-0.862-1.025-1.718-2.053-2.574-3.091c-0.395-0.479-0.923-0.953-1.074-1.584c-0.075-0.293-0.068-0.521-0.068-0.881
						c0,0,0.074-7.528,0.068-8.057c0,0,0.006-2.525,0.006-3.564v-2.063l-6.182-1.322c0,0-3.352-0.729-3.381-0.741
						c-0.359-0.163-0.499-0.474-0.511-0.843c-0.019-0.439-0.153-1.799-0.153-1.799c-0.06-0.498-1.031-0.66-1.031-0.66l-0.389-0.475
						c0,0,1.731-1.683,2.229-1.81c0.169-0.092,0.807-0.227,0.807-0.227l0.036-9.452c-0.25-0.425-0.438-0.893-0.947-1.111
						c-0.213-0.091-0.267-0.346-0.267-0.582c0.006-0.59,0.006-1.178,0-1.762c0-0.169,0.048-0.267,0.219-0.339
						c0.637-0.267,1.257-0.56,1.883-0.837c0,0-0.097-3.116-0.109-3.425c-0.164-0.023-0.552-0.111-0.552-0.111l0.625-2.244
						l0.443-0.293v-0.479c0-1.062,1.056-1.47,1.457-1.676l1.671-4.25c-0.006-1.518-0.037-4.202-0.037-5.719
						c0-1.021,1.396-3.99,1.396-3.99l1.84-2.354v-1.621c0-0.535,0.279-0.578,0.692-0.59l3.207-0.035v-2.484h4.194v-2.812h2.854
						v-1.286l0.904,0.012v1.274l4.475-0.006l0.006-1.264c0,0,0.65,0,0.959,0v1.27h0.734v-1.975h0.959v1.975h1.932v-6.85h12.471
						c0,0.236,0,5.338,0,5.338l0.607,0.242h0.952v1.195c0,0.4,0.298,1.871,0.298,1.871l2.282,0.078
						c0.443,0.389,0.406,0.729-0.15,0.947c-0.425,0.163-0.882,0.256-1.325,0.376l-0.146,0.99l1.396,0.133v0.718h-1.396
						c0.014,0,0.371,2.635,0.384,2.635c0.625,0.363,1.274,0.746,1.383,1.48l0.59,2.798c0.176,0.791-0.006,1.572-0.074,2.357
						l-0.332,2.646c0,0,1.931,3.268,2.385,4.016c0.406,0.674,0.742,1.395,1.111,2.093c0,0,0.59,1.444,0.734,1.84
						c0.146,0.565,0.989,4.244,0.989,4.244c6.669,1.288,6.56,2.495,6.669,3.632c0,0,0.073,1.273,0.073,1.841
						C335.972,852.486,336.701,855.398,336.701,855.576z"/>
				</g>
			</g>
		</g>
	</g>
</g>
</svg>
