<?xml version="1.0" encoding="utf-8"?>
<!-- Generator: Adobe Illustrator 16.0.0, SVG Export Plug-In . SVG Version: 6.00 Build 0)  -->
<!DOCTYPE svg PUBLIC "-//W3C//DTD SVG 1.1//EN" "http://www.w3.org/Graphics/SVG/1.1/DTD/svg11.dtd">
<svg version="1.1" id="Layer_1" xmlns="http://www.w3.org/2000/svg" xmlns:xlink="http://www.w3.org/1999/xlink" x="0px" y="0px"
	 width="160.811px" height="412.162px" viewBox="0 0 160.811 412.162" enable-background="new 0 0 160.811 412.162"
	 xml:space="preserve">
<path fill="#E5E5E5" d="M139.824,225.424c-0.041-2.539-1.733-15.023-1.733-15.023s-1.324-36.473-2.456-41.818
	c-1.121-5.344-4.885-17.057-5.563-22.104c-0.68-5.059-1.747-15.918-1.747-15.918s2.357-1.824,1.737-3.156
	c-0.61-1.33-2.12-2.354-2.89-13.066c-0.762-10.713,0.85-21.758-11.617-27.816c-12.458-6.059-19.377-9.969-19.377-9.969
	s0.123-1.854,1.546-1.197c2.702,1.254,8.78,2.971,9.829-0.164c0.785-2.32,0.85-7.836,0.85-7.836
	c-0.219-0.248,1.392-0.701,1.617-1.145c0.268-0.521-0.413-2.297-0.413-2.297l1.104-0.84l-0.325-2.453c0,0,2.899,0.188,3.624-0.871
	c0.733-1.057-1.433-5.717-2.202-7.49c-0.771-1.775-1.017-3.203-1.017-3.203s1.502-1.088,1.68-1.652
	c0.826-2.553-1.883-11.062-1.883-11.062l2.098,0.932c0,0-0.635-2.225-1.574-5.043c-0.938-2.809-6.864-10.09-11.646-11.201
	c-4.781-1.121-7.167-1.082-7.167-1.082l2.881-1.461c0,0-1.866-0.414-5.138,0.084c-0.785,0.119-2.315,1.084-2.501,1.203l2.63-2.617
	c0,0-4.237,0.516-5.271,1.273c-1.032,0.758-2.427,1.879-2.427,1.879l1.75-2.467c0,0-5.1,3.109-6.817,5.23
	c-1.709,2.109-7.71,8.615-8.202,15.324c-0.491,6.713-0.378,13.279,0.713,16.096c1.082,2.814,2.85,10.527,0.417,17.127
	c-1.336,3.633-27.613,15.467-31.727,19.25c-4.104,3.793-11.847,32.225-12.858,34.32c-1.003,2.1,1.979,2.5,1.979,2.5l0.031,20.406
	c0,0-3.93,15.256-4.161,19.283c-0.239,4.025,0.431,26.959,0.431,26.959l3.468,49.254c0,0,0.84,6.102,3.083,6.664
	c2.243,0.555,6.269,0.795,6.269,0.795l3.357,4.859c0,0,0.198,12.359-0.483,16.688c-0.673,4.328,0.302,9.381,0.302,9.381
	l-0.083,4.318c0,0-2.054,1.82-2.455,4.66c-0.401,2.84-2.549,8.236-2.549,8.236s0.232,5.064,0.266,7.146
	c0.032,2.084-0.564,11.629-0.832,13.42c-0.267,1.793-0.33,16.846-0.33,16.846s-1.495,8.818-1.471,10.311
	c0.024,1.492,1.498,9.809,1.498,9.809s-1.5,8.207-1.93,9.26c-0.43,1.053-0.381,4.182-0.381,4.182l-1.271,4.338
	c0,0-8.75,11.756-9.31,14.154c-0.552,2.387,0.147,9.23,0.147,9.23s3.935,3.512,6.179,4.074c2.243,0.553,11.448-1.229,11.448-1.229
	s3.145-3.955,3.334-5.566c0.92-7.891,6.812-12.16,6.812-12.16l1.07-7.461l3.184-6.014l-1.966-10.861l1.692-5.988
	c0,0,5.212-9.451,3.937-24.393c-0.484-5.676,1.578-17.053,2.758-22.621c0.557-2.619,3.116-10.221,3.116-10.221
	s2.894-20.855,5.277-23.879c6.421-8.146,5.214-27.791,11.445-29.383c4.237-1.076,4.524,6.283,7.11,15.977
	c0.998,3.711,0.678,25.021,4.49,33.82c2.164,4.996,2.721,16.393,2.721,16.393s1.339,9.365,1.398,13.09
	c0.06,3.727-1.903,11.494-1.669,17.156c0.241,5.654,3.215,14.393,3.215,14.393l0.169,10.57l0.364,4.32l1.217,1.77l-0.001,8.938
	l3.51,5.307l0.941,2.98c0,0-0.485,7.156,0.151,9.533c0.637,2.367,4.135,7.076,6.674,7.635c2.546,0.557,4.044,1.428,6.874,1.23
	c2.832-0.189,4.174-0.068,5.928-2.18c1.754-2.109,2.486-2.701,2.413-7.26c-0.071-4.549-2.044-6.6-2.981-9.266
	c-0.936-2.666-2.215-8.303-2.26-11.137c-0.046-2.83-0.359-4.016-0.359-4.016l-2.59-3.238l0.09-3.871c0,0,2.357-1.826,2.324-3.908
	c-0.034-2.092-0.115-7.148-0.115-7.148s-1.691-2.959-1.728-5.193c-0.034-2.232,1.71-33.092,2.104-36.379
	c0.395-3.285-1.414-4.598-1.566-5.186c-0.162-0.596-1.129-5.201-0.994-6.242c0.127-1.047,0.642-6.266,0.608-8.357
	c-0.033-2.08,1.827-7.027,2.243-8.971c0.416-1.938,1.462-10.893,1.404-14.469c-0.057-3.574-1.056-19.646-0.357-22.338
	c0.699-2.693,4.074-6.332,3.283-8.848c-0.783-2.518-2.183-6.223-1.933-9.059c0.259-2.83-1.683-21.424-1.888-25.291
	c-0.215-3.877-3.073-5.467-3.118-8.301c-0.045-2.822,0.501-6.111-0.296-9.531c-0.805-3.41-1.869-14.119-1.869-14.119
	s2.096,9.799,4.28,16.172c2.192,6.365,9.196,25.176,9.416,29.936c0.228,4.77,0.689,5.656,0.117,7.301
	c-0.564,1.645-1.666,7.623-1.486,9.408c0.181,1.785-1.332,10.004-1.615,10.75c-0.283,0.748,0.495,2.98,0.952,3.713
	c0.459,0.734,2.81-1.537,2.803-1.984c-0.008-0.445,1.211-8.064,2.107-7.926c0.896,0.129,3.005,1.74,3.185,3.525
	c0.171,1.785-1.847,5.84-2.864,7.492c-1.012,1.658-1.891,2.566-1.871,3.756c0.019,1.188-0.713,2.396-0.264,2.533
	c0.449,0.146,2.827-0.34,4.019-0.207c1.2,0.125,5.476-2.473,6.358-3.088c0.885-0.604,3.199-5.109,2.983-9.129
	C143.021,239.227,139.864,227.953,139.824,225.424z M47.194,180.363c-0.468,3.135-1.044,9.105-0.843,12.75
	c0.211,3.643,0.472,6.025,0.472,6.025s-2.42,2.344-2.896,5.033c-0.484,2.689-3.922,20.246-3.922,20.246s-4.399-4.623-4.496-6.186
	c-0.097-1.562,1.419-9.033,1.419-9.033s2.871-11.664,3.266-14.949c0.394-3.279,3.366-22.623,3.366-22.623l0.923-11.555l2.115-17.018
	c0,0,0.458,0.736,1.315,2.885c0.848,2.15,2.31,9.795,2.31,9.795l-0.844,3.07c0,0,1.478,3.553,1.5,4.893
	C50.899,165.039,47.662,177.227,47.194,180.363z"/>
</svg>
