<?xml version="1.0" encoding="utf-8"?>
<!-- Generator: Adobe Illustrator 16.0.0, SVG Export Plug-In . SVG Version: 6.00 Build 0)  -->
<!DOCTYPE svg PUBLIC "-//W3C//DTD SVG 1.1//EN" "http://www.w3.org/Graphics/SVG/1.1/DTD/svg11.dtd">
<svg version="1.1" id="Layer_1" xmlns="http://www.w3.org/2000/svg" xmlns:xlink="http://www.w3.org/1999/xlink" x="0px" y="0px"
	 width="792px" height="612px" viewBox="0 0 792 612" enable-background="new 0 0 792 612" xml:space="preserve">
<linearGradient id="SVGID_1_" gradientUnits="userSpaceOnUse" x1="699.0908" y1="190.1826" x2="100.8987" y2="535.5488">
	<stop  offset="0" style="stop-color:#FFFFFF"/>
	<stop  offset="0.1619" style="stop-color:#F2F2F2"/>
	<stop  offset="0.4613" style="stop-color:#D0D0D0"/>
	<stop  offset="0.8622" style="stop-color:#999999"/>
	<stop  offset="1" style="stop-color:#858585"/>
</linearGradient>
<path fill="url(#SVGID_1_)" d="M185.076,432.525h-69.919c-10.984,0-19.872,9.541-19.872,21.33v24.141
	c0,10.471,9.847,18.279,19.872,18.279h69.919c10.1,0,18.447-7.898,19.658-18.27v-27.23
	C204.733,440.557,195.175,432.525,185.076,432.525z M184.638,473.195c0,2.781-2.376,4.811-4.966,4.811l-59.283,0.02
	c-2.875,0.031-5.041-2.613-5.007-4.969l-0.003-17.08c0-2.83,2.189-5.18,4.826-5.18l58.83-0.018c3.804-0.014,5.602,2.359,5.567,5.652
	l0.035,16.754C184.638,473.195,184.638,473.195,184.638,473.195z M611.111,476.711h84.739c-1.212,10.367-9.551,18.268-19.648,18.268
	h-69.924c-10.977,0-19.863-9.545-19.863-21.326v-21.092c0-11.783,8.887-21.326,19.863-21.326h69.924
	c10.098,0,18.437,7.893,19.648,18.26h-84.739c-2.305,0-4.169,1.652-4.608,3.889v19.439
	C606.942,475.059,608.807,476.711,611.111,476.711z M449.69,414.268v45.949c0,6.949-2.853,12.49-8.233,15.553
	c-2.852,1.771-7.687,2.236-11.19,2.236h-24.228v18.268h-21.257v-18.268h-24.44c-3.516,0-6.919-0.938-9.769-2.824
	c-5.71-3.418-9.772-9.895-9.993-17.436v-25.219h19.981v22.15c0,2.83,2.085,5.068,4.719,5.068h59.711c2.53,0,4.611-2,4.728-4.598
	c0.107-0.113,0.107-0.352,0.107-0.471v-22.15L449.69,414.268z M572.723,450.205v46.064h-19.979v-43.598
	c-0.116-2.23-1.647-4.125-3.726-4.473H487.33c-1.986,0.236-3.622,2.006-3.854,4.236v25.568l-19.863,18.266v-48.42
	c0-7.078,2.961-12.607,8.348-15.676c2.842-1.77,7.568-2.229,11.087-2.229h69.916c3.519,0,6.907,0.934,9.776,2.814
	C568.438,436.188,572.5,442.652,572.723,450.205z M306.785,432.525h-89.772v63.75h89.772c10.108,0,18.446-7.898,19.658-18.27
	v-27.209C325.231,440.426,316.894,432.525,306.785,432.525z M308.332,472.826c0,2.82-2.208,5.18-4.826,5.18h-66.314v-27.23
	l66.314,0.021c2.618,0,4.826,2.35,4.826,5.18V472.826z M675.291,467.473h-58.958v-8.717h58.958V467.473z M120.028,522.199v3.885
	c-0.155,1.162-0.643,2.125-1.462,2.889c-0.821,0.764-1.788,1.145-2.903,1.145h-15.417c-1.114,0-2.083-0.381-2.902-1.145
	c-0.82-0.764-1.309-1.727-1.462-2.889h18.621c0.278,0,0.526-0.1,0.743-0.299c0.216-0.199,0.326-0.447,0.326-0.748v-0.896H95.881
	v-3.385c0-1.295,0.425-2.398,1.277-3.312c0.85-0.912,1.88-1.369,3.087-1.369h15.417c1.115,0,2.082,0.381,2.903,1.145
	c0.819,0.766,1.308,1.727,1.462,2.889H101.36c-0.31,0-0.565,0.107-0.767,0.324c-0.202,0.217-0.302,0.49-0.302,0.822v0.945H120.028z
	 M262.565,517.217c-0.821-0.76-1.781-1.141-2.9-1.141H239.84v14.039l4.411,4.631l0.046-8.609h15.367c1.119,0,2.08-0.381,2.9-1.15
	c0.82-0.76,1.295-1.721,1.417-2.891v-1.99C263.86,518.945,263.385,517.986,262.565,517.217z M259.646,521.797
	c-0.205,0.199-0.429,0.299-0.681,0.299h-14.667v-1.99h14.667c0.252,0,0.476,0.102,0.681,0.301c0.196,0.199,0.308,0.43,0.345,0.699
	C259.954,521.365,259.842,521.605,259.646,521.797z M406.455,517.217c-0.812-0.76-1.753-1.141-2.835-1.141h-15.46
	c-1.119,0-2.089,0.391-2.928,1.17s-1.315,1.721-1.436,2.811v10.059h3.944v-6.02h16.16v6.02h4.037v-10.059
	C407.751,518.926,407.257,517.986,406.455,517.217z M403.9,522.096h-16.16v-0.889c0-0.271,0.196-0.58,0.606-0.951
	c0.084-0.129,0.261-0.199,0.503-0.199h13.979c0.373,0,0.606,0.07,0.699,0.199c0.251,0.23,0.373,0.551,0.373,0.951V522.096z
	 M533.181,526.084h18.714c-0.156,1.162-0.644,2.125-1.463,2.889c-0.82,0.764-1.788,1.145-2.902,1.145h-15.418
	c-1.206,0-2.236-0.455-3.088-1.369c-0.852-0.912-1.276-2.018-1.276-3.311v-4.682c0-1.295,0.425-2.398,1.276-3.312
	c0.852-0.912,1.882-1.369,3.088-1.369h15.418c1.114,0,2.082,0.381,2.902,1.145c0.819,0.766,1.307,1.727,1.463,2.889h-18.714
	c-0.249,0-0.465,0.076-0.651,0.225c-0.186,0.148-0.31,0.357-0.37,0.623v4.281c0.061,0.268,0.185,0.475,0.37,0.623
	C532.716,526.01,532.932,526.084,533.181,526.084z M677.182,526.084h18.669c-0.125,1.162-0.597,2.125-1.416,2.889
	c-0.821,0.764-1.787,1.145-2.903,1.145h-15.417c-1.208,0-2.245-0.455-3.111-1.369c-0.867-0.912-1.3-2.018-1.3-3.311v-4.682
	c0-1.295,0.433-2.398,1.3-3.312c0.866-0.912,1.903-1.369,3.111-1.369h15.417c1.116,0,2.082,0.381,2.903,1.145
	c0.819,0.766,1.291,1.727,1.416,2.889h-18.669c-0.247,0-0.464,0.076-0.649,0.225s-0.311,0.357-0.372,0.623v4.281
	c0.062,0.268,0.187,0.475,0.372,0.623C676.718,526.01,676.935,526.084,677.182,526.084z M678.343,522.148h13.003v1.893h-13.003
	V522.148z M621.497,205.548v80.731c0,3.992-0.283,7.901-0.846,11.728c-5.681,39.554-39.688,69.915-80.797,69.915h-65.08
	c-25.79-26.203-48.974-45.547-79.26-66.785c65.346-82.703,196.465-154.739,199.049-156.13
	c-2.518,1.259-156.892,77.568-288.534,105.542c-42.725-17.61-84.549-32.33-134.24-40.711v-4.29c0-3.993,0.281-7.901,0.845-11.728
	c5.665-39.555,39.67-69.916,80.798-69.916h286.422c41.109,0,75.116,30.361,80.797,69.916
	C621.214,197.647,621.497,201.555,621.497,205.548z M619.25,145.503c2.951-6.004-2.174-11.905-15.942-13.898l0,0
	c2.806-1.533,11.596-5.462,15.53-3.789l0,0c34.537-17.833,35.896-14.742,36.118-14.029c0.141,0.448-0.535,6.542-28.819,22.967l0,0
	C626.896,139.62,622.123,143.958,619.25,145.503"/>
</svg>
