<?xml version="1.0" encoding="utf-8"?>
<!-- Generator: Adobe Illustrator 16.0.0, SVG Export Plug-In . SVG Version: 6.00 Build 0)  -->
<!DOCTYPE svg PUBLIC "-//W3C//DTD SVG 1.1//EN" "http://www.w3.org/Graphics/SVG/1.1/DTD/svg11.dtd">
<svg version="1.1" id="Layer_1" xmlns="http://www.w3.org/2000/svg" xmlns:xlink="http://www.w3.org/1999/xlink" x="0px" y="0px"
	 width="500px" height="288px" viewBox="0 0 500 288" enable-background="new 0 0 500 288" xml:space="preserve">
<linearGradient id="SVGID_1_" gradientUnits="userSpaceOnUse" x1="176.9111" y1="309.5195" x2="352.6656" y2="5.1038" gradientTransform="matrix(1 0 0 -1 0 289)">
	<stop  offset="0" style="stop-color:#F7F7F7"/>
	<stop  offset="0.2104" style="stop-color:#F0F0F0"/>
	<stop  offset="0.5099" style="stop-color:#DEDEDE"/>
	<stop  offset="0.8611" style="stop-color:#BFBFBF"/>
	<stop  offset="1" style="stop-color:#B1B1B1"/>
</linearGradient>
<path fill="url(#SVGID_1_)" d="M443.557,111.998v75.382c0,3.722-0.264,7.373-0.789,10.947c-5.297,36.93-37.046,65.293-75.438,65.293
	H185.29c32.459-98.724,230.029-206.473,233.123-208.151c-3.048,1.529-198.906,100.184-394.765,131.911v-75.382
	c0-3.721,0.263-7.373,0.788-10.945c5.295-36.933,37.046-65.282,75.452-65.282H367.33c38.393,0,70.142,28.349,75.438,65.282
	C443.293,104.625,443.557,108.277,443.557,111.998z M442.021,51.293c34.331-18.463,34.331-26.523,34.331-26.523
	s-2.609-4.768-46.024,18.982C430.327,43.752,444.639,47.203,442.021,51.293"/>
</svg>
