<?xml version="1.0" encoding="utf-8"?>
<!-- Generator: Adobe Illustrator 16.0.0, SVG Export Plug-In . SVG Version: 6.00 Build 0)  -->
<!DOCTYPE svg PUBLIC "-//W3C//DTD SVG 1.1//EN" "http://www.w3.org/Graphics/SVG/1.1/DTD/svg11.dtd">
<svg version="1.1" id="Layer_1" xmlns="http://www.w3.org/2000/svg" xmlns:xlink="http://www.w3.org/1999/xlink" x="0px" y="0px"
	 width="792px" height="174px" viewBox="0 0 792 174" enable-background="new 0 0 792 174" xml:space="preserve">
<linearGradient id="SVGID_1_" gradientUnits="userSpaceOnUse" x1="150.4419" y1="45.0186" x2="150.4419" y2="108.7686">
	<stop  offset="0" style="stop-color:#F0F0F0"/>
	<stop  offset="0.1841" style="stop-color:#E2E2E2"/>
	<stop  offset="0.5324" style="stop-color:#BDBDBD"/>
	<stop  offset="1" style="stop-color:#828282"/>
</linearGradient>
<path fill="url(#SVGID_1_)" d="M185.508,45.019h-69.919c-10.984,0-19.872,9.54-19.872,21.33v24.141
	c0,10.47,9.847,18.279,19.872,18.279h69.919c10.1,0,18.447-7.899,19.658-18.27v-27.23C205.166,53.049,195.608,45.019,185.508,45.019
	z M185.071,85.688c0,2.78-2.376,4.811-4.966,4.811l-59.283,0.019c-2.875,0.031-5.041-2.613-5.007-4.969l-0.003-17.08
	c0-2.83,2.189-5.18,4.826-5.18l58.83-0.018c3.804-0.014,5.602,2.36,5.567,5.652l0.035,16.755
	C185.071,85.688,185.071,85.688,185.071,85.688z"/>
<linearGradient id="SVGID_2_" gradientUnits="userSpaceOnUse" x1="641.5654" y1="43.7266" x2="641.5654" y2="107.4707">
	<stop  offset="0" style="stop-color:#F0F0F0"/>
	<stop  offset="0.1841" style="stop-color:#E2E2E2"/>
	<stop  offset="0.5324" style="stop-color:#BDBDBD"/>
	<stop  offset="1" style="stop-color:#828282"/>
</linearGradient>
<path fill="url(#SVGID_2_)" d="M611.544,89.204h84.739c-1.212,10.367-9.551,18.267-19.648,18.267h-69.924
	c-10.977,0-19.863-9.545-19.863-21.326V65.054c0-11.784,8.887-21.327,19.863-21.327h69.924c10.098,0,18.437,7.894,19.648,18.26
	h-84.739c-2.305,0-4.169,1.652-4.608,3.889v19.439C607.375,87.552,609.239,89.204,611.544,89.204z"/>
<linearGradient id="SVGID_3_" gradientUnits="userSpaceOnUse" x1="395.5679" y1="26.7607" x2="395.5679" y2="108.7656">
	<stop  offset="0" style="stop-color:#F0F0F0"/>
	<stop  offset="0.1841" style="stop-color:#E2E2E2"/>
	<stop  offset="0.5324" style="stop-color:#BDBDBD"/>
	<stop  offset="1" style="stop-color:#828282"/>
</linearGradient>
<path fill="url(#SVGID_3_)" d="M450.123,26.761V72.71c0,6.949-2.853,12.49-8.233,15.552c-2.852,1.772-7.687,2.237-11.19,2.237
	h-24.228v18.267h-21.257V90.499h-24.44c-3.516,0-6.919-0.938-9.769-2.824c-5.71-3.419-9.772-9.896-9.993-17.437V45.021h19.981v22.15
	c0,2.83,2.085,5.068,4.719,5.068h59.711c2.53,0,4.611-2.001,4.728-4.598c0.107-0.114,0.107-0.352,0.107-0.471v-22.15L450.123,26.761
	z"/>
<linearGradient id="SVGID_4_" gradientUnits="userSpaceOnUse" x1="518.5996" y1="42.4375" x2="518.5996" y2="108.7627">
	<stop  offset="0" style="stop-color:#F0F0F0"/>
	<stop  offset="0.1841" style="stop-color:#E2E2E2"/>
	<stop  offset="0.5324" style="stop-color:#BDBDBD"/>
	<stop  offset="1" style="stop-color:#828282"/>
</linearGradient>
<path fill="url(#SVGID_4_)" d="M573.155,62.698v46.064h-19.979V65.165c-0.116-2.23-1.647-4.126-3.726-4.474h-61.688
	c-1.986,0.236-3.622,2.007-3.854,4.236v25.568l-19.863,18.267v-48.42c0-7.079,2.961-12.608,8.348-15.676
	c2.842-1.77,7.568-2.229,11.087-2.229h69.916c3.519,0,6.907,0.934,9.776,2.814C568.87,48.681,572.933,55.146,573.155,62.698z"/>
<linearGradient id="SVGID_5_" gradientUnits="userSpaceOnUse" x1="272.1606" y1="45.0186" x2="272.1606" y2="108.7686">
	<stop  offset="0" style="stop-color:#F0F0F0"/>
	<stop  offset="0.1841" style="stop-color:#E2E2E2"/>
	<stop  offset="0.5324" style="stop-color:#BDBDBD"/>
	<stop  offset="1" style="stop-color:#828282"/>
</linearGradient>
<path fill="url(#SVGID_5_)" d="M307.218,45.019h-89.772v63.75h89.772c10.108,0,18.446-7.899,19.658-18.27v-27.21
	C325.664,52.919,317.326,45.019,307.218,45.019z M308.765,85.318c0,2.82-2.208,5.181-4.826,5.181h-66.314v-27.23l66.314,0.021
	c2.618,0,4.826,2.35,4.826,5.18V85.318z"/>
<linearGradient id="SVGID_6_" gradientUnits="userSpaceOnUse" x1="646.2441" y1="71.249" x2="646.2441" y2="79.9648">
	<stop  offset="0" style="stop-color:#F0F0F0"/>
	<stop  offset="0.1841" style="stop-color:#E2E2E2"/>
	<stop  offset="0.5324" style="stop-color:#BDBDBD"/>
	<stop  offset="1" style="stop-color:#828282"/>
</linearGradient>
<rect x="616.766" y="71.249" fill="url(#SVGID_6_)" width="58.958" height="8.716"/>
<g>
	<linearGradient id="SVGID_7_" gradientUnits="userSpaceOnUse" x1="108.3872" y1="128.5664" x2="108.3872" y2="142.6104">
		<stop  offset="0" style="stop-color:#F0F0F0"/>
		<stop  offset="0.1841" style="stop-color:#E2E2E2"/>
		<stop  offset="0.5324" style="stop-color:#BDBDBD"/>
		<stop  offset="1" style="stop-color:#828282"/>
	</linearGradient>
	<path fill="url(#SVGID_7_)" d="M120.46,134.692v3.885c-0.155,1.162-0.643,2.124-1.462,2.888c-0.821,0.765-1.788,1.146-2.903,1.146
		h-15.417c-1.114,0-2.083-0.381-2.902-1.146c-0.82-0.764-1.309-1.726-1.462-2.888h18.621c0.278,0,0.526-0.101,0.743-0.3
		c0.216-0.198,0.326-0.447,0.326-0.747v-0.896H96.313v-3.386c0-1.295,0.425-2.398,1.277-3.312c0.85-0.913,1.88-1.37,3.087-1.37
		h15.417c1.115,0,2.082,0.382,2.903,1.146c0.819,0.765,1.308,1.727,1.462,2.889h-18.667c-0.31,0-0.565,0.107-0.767,0.324
		c-0.202,0.216-0.302,0.489-0.302,0.821v0.946H120.46z"/>
</g>
<g>
	<linearGradient id="SVGID_8_" gradientUnits="userSpaceOnUse" x1="252.3438" y1="128.5684" x2="252.3438" y2="147.2393">
		<stop  offset="0" style="stop-color:#F0F0F0"/>
		<stop  offset="0.1841" style="stop-color:#E2E2E2"/>
		<stop  offset="0.5324" style="stop-color:#BDBDBD"/>
		<stop  offset="1" style="stop-color:#828282"/>
	</linearGradient>
	<path fill="url(#SVGID_8_)" d="M262.998,129.709c-0.821-0.76-1.781-1.141-2.9-1.141h-19.824v14.04l4.411,4.631l0.046-8.61h15.367
		c1.119,0,2.08-0.38,2.9-1.15c0.82-0.76,1.295-1.72,1.417-2.89v-1.99C264.293,131.438,263.818,130.479,262.998,129.709z
		 M260.079,134.289c-0.205,0.2-0.429,0.3-0.681,0.3H244.73v-1.99h14.667c0.252,0,0.476,0.101,0.681,0.3
		c0.196,0.2,0.308,0.431,0.345,0.7C260.386,133.858,260.274,134.099,260.079,134.289z"/>
</g>
<g>
	<linearGradient id="SVGID_9_" gradientUnits="userSpaceOnUse" x1="396.2993" y1="128.5684" x2="396.2993" y2="142.6084">
		<stop  offset="0" style="stop-color:#F0F0F0"/>
		<stop  offset="0.1841" style="stop-color:#E2E2E2"/>
		<stop  offset="0.5324" style="stop-color:#BDBDBD"/>
		<stop  offset="1" style="stop-color:#828282"/>
	</linearGradient>
	<path fill="url(#SVGID_9_)" d="M406.888,129.709c-0.812-0.76-1.753-1.141-2.835-1.141h-15.46c-1.119,0-2.089,0.391-2.928,1.171
		c-0.839,0.779-1.315,1.72-1.436,2.81v10.06h3.944v-6.02h16.16v6.02h4.037v-10.06C408.184,131.419,407.689,130.479,406.888,129.709z
		 M404.333,134.589h-16.16v-0.89c0-0.271,0.196-0.58,0.606-0.95c0.084-0.13,0.261-0.2,0.503-0.2h13.979
		c0.373,0,0.606,0.07,0.699,0.2c0.251,0.229,0.373,0.55,0.373,0.95V134.589z"/>
</g>
<g>
	<linearGradient id="SVGID_10_" gradientUnits="userSpaceOnUse" x1="540.2539" y1="128.5664" x2="540.2539" y2="142.6104">
		<stop  offset="0" style="stop-color:#F0F0F0"/>
		<stop  offset="0.1841" style="stop-color:#E2E2E2"/>
		<stop  offset="0.5324" style="stop-color:#BDBDBD"/>
		<stop  offset="1" style="stop-color:#828282"/>
	</linearGradient>
	<path fill="url(#SVGID_10_)" d="M533.613,138.577h18.714c-0.156,1.162-0.644,2.124-1.463,2.888
		c-0.82,0.765-1.788,1.146-2.902,1.146h-15.418c-1.206,0-2.236-0.456-3.088-1.369s-1.276-2.018-1.276-3.312v-4.682
		c0-1.295,0.425-2.398,1.276-3.312s1.882-1.37,3.088-1.37h15.418c1.114,0,2.082,0.382,2.902,1.146
		c0.819,0.765,1.307,1.727,1.463,2.889h-18.714c-0.249,0-0.465,0.075-0.651,0.225c-0.186,0.148-0.31,0.356-0.37,0.622v4.282
		c0.061,0.267,0.185,0.474,0.37,0.623C533.148,138.502,533.364,138.577,533.613,138.577z"/>
</g>
<g>
	<linearGradient id="SVGID_11_" gradientUnits="userSpaceOnUse" x1="684.209" y1="128.5664" x2="684.209" y2="142.6104">
		<stop  offset="0" style="stop-color:#F0F0F0"/>
		<stop  offset="0.1841" style="stop-color:#E2E2E2"/>
		<stop  offset="0.5324" style="stop-color:#BDBDBD"/>
		<stop  offset="1" style="stop-color:#828282"/>
	</linearGradient>
	<path fill="url(#SVGID_11_)" d="M677.614,138.577h18.669c-0.125,1.162-0.597,2.124-1.416,2.888
		c-0.821,0.765-1.787,1.146-2.903,1.146h-15.417c-1.208,0-2.245-0.456-3.111-1.369c-0.867-0.913-1.3-2.018-1.3-3.312v-4.682
		c0-1.295,0.433-2.398,1.3-3.312c0.866-0.913,1.903-1.37,3.111-1.37h15.417c1.116,0,2.082,0.382,2.903,1.146
		c0.819,0.765,1.291,1.727,1.416,2.889h-18.669c-0.247,0-0.464,0.075-0.649,0.225c-0.186,0.148-0.311,0.356-0.372,0.622v4.282
		c0.062,0.267,0.187,0.474,0.372,0.623S677.367,138.577,677.614,138.577z"/>
	<linearGradient id="SVGID_12_" gradientUnits="userSpaceOnUse" x1="685.2773" y1="134.6416" x2="685.2773" y2="136.5342">
		<stop  offset="0" style="stop-color:#F0F0F0"/>
		<stop  offset="0.1841" style="stop-color:#E2E2E2"/>
		<stop  offset="0.5324" style="stop-color:#BDBDBD"/>
		<stop  offset="1" style="stop-color:#828282"/>
	</linearGradient>
	<rect x="678.775" y="134.642" fill="url(#SVGID_12_)" width="13.003" height="1.893"/>
</g>
</svg>
